PathFileType	4	(X/Y/Z)	E:\Qualisys_Data\Carbon_Farble_Plate\Data\Amateur_Runner\S1\T2\S1T2V13_c3d.trc
DataRate	CameraRate	NumFrames	NumMarkers	Units	OrigDataRate	OrigDataStartFrame	OrigNumFrames
200.000000	200.000000	4	39	mm	200.000000	153	307
Frame#	Time	LSHO			RSHO			LICST			RICST			LASIS			LHEEL			RASIS			LTROC			RTROC			SACR			LTH1			LSK4			LTH2			LTH3			RHM5			LSK2			LTH4			RTH1			LTOE			RTH2			RTH3			RTH4			LLEP			RLEP			LSK1			LSK3			RSK1			LHM5			RSK2			LFT1			RSK3			RSK4			LLME			RLME			RTOE			RHEEL			RFT1			RFT2			LFT2			
		X1	Y1	Z1	X2	Y2	Z2	X3	Y3	Z3	X4	Y4	Z4	X5	Y5	Z5	X6	Y6	Z6	X7	Y7	Z7	X8	Y8	Z8	X9	Y9	Z9	X10	Y10	Z10	X11	Y11	Z11	X12	Y12	Z12	X13	Y13	Z13	X14	Y14	Z14	X15	Y15	Z15	X16	Y16	Z16	X17	Y17	Z17	X18	Y18	Z18	X19	Y19	Z19	X20	Y20	Z20	X21	Y21	Z21	X22	Y22	Z22	X23	Y23	Z23	X24	Y24	Z24	X25	Y25	Z25	X26	Y26	Z26	X27	Y27	Z27	X28	Y28	Z28	X29	Y29	Z29	X30	Y30	Z30	X31	Y31	Z31	X32	Y32	Z32	X33	Y33	Z33	X34	Y34	Z34	X35	Y35	Z35	X36	Y36	Z36	X37	Y37	Z37	X38	Y38	Z38	X39	Y39	Z39	

154	0.765	402.2745056152344	1526.259155273438	-522.0523071289062	307.1371154785156	1515.998413085938	-215.3843536376953	316.6166076660156	1051.440673828125	-514.802001953125	304.3701171875	1076.81298828125	-219.3091888427734	356.8285217285156	1009.436401367188	-488.2872314453125	-255.5656433105469	390.8963012695312	-429.0196838378906	341.0002746582031	1027.84033203125	-225.8312683105469	232.8488006591797	942.5949096679688	-533.5999755859375	235.8386077880859	937.38916015625	-195.5648956298828	192.8666534423828	1086.979736328125	-367.9953918457031	313.0118713378906	764.6149291992188	-492.6799926757812	-130.3195953369141	449.1669006347656	-459.9985961914062	240.9316864013672	780.4500122070312	-528.3468627929688	280.0843505859375	663.7346801757812	-476.6297302246094	640.6396484375	133.5231018066406	-215.6147613525391	-40.26272583007812	488.8409118652344	-493.5147705078125	205.5920715332031	686.4420166015625	-507.8006286621094	387.1992797851562	828.3532104492188	-212.018310546875	-199.2093811035156	144.0545349121094	-409.3968811035156	314.8430480957031	806.9140014648438	-180.3359375	414.9447326660156	730.52587890625	-213.0601348876953	338.3759765625	709.5758056640625	-192.5905456542969	173.2562561035156	533.5045776367188	-475.7716369628906	425.090087890625	566.738525390625	-238.7480773925781	-5.914003849029541	413.3682250976562	-483.6260986328125	-100.6987762451172	376.366943359375	-479.6785583496094	465.2985229492188	383.1513061523438	-214.5291290283203	-248.3955383300781	191.9188537597656	-480.7200012207031	386.2469177246094	365.0406494140625	-220.7753448486328	-281.7343444824219	378.2910766601562	-402.405517578125	489.9268798828125	286.4462585449219	-226.2882995605469	412.4437561035156	269.3437805175781	-241.817138671875	-216.7697601318359	346.3193969726562	-477.8339233398438	494.8082885742188	146.4344940185547	-225.2089385986328	684.778564453125	177.8641052246094	-290.9651794433594	449.5857238769531	80.75829315185547	-266.3258056640625	473.0955200195312	59.55624008178711	-299.1407165527344	467.3363342285156	56.26485443115234	-243.6526489257812	-285.7694091796875	374.8621520996094	-456.6512756347656
155	0.77	418.5313415527344	1522.850830078125	-520.8063354492188	323.4405822753906	1511.869140625	-214.0951232910156	332.7759399414062	1047.8798828125	-515.0841674804688	319.983642578125	1073.962036132812	-219.1866149902344	373.3456115722656	1006.314758300781	-487.9306945800781	-237.1244049072266	396.823974609375	-428.3334045410156	356.8801574707031	1025.019287109375	-225.5139617919922	250.1285400390625	938.40380859375	-533.8245849609375	251.4313659667969	934.40673828125	-196.0317840576172	208.9313812255859	1083.032348632812	-368.3208618164062	332.2431335449219	761.0405883789062	-492.6246643066406	-109.871696472168	451.6585388183594	-459.8329162597656	259.8336791992188	776.1293334960938	-528.4529418945312	301.0892639160156	660.09375	-477.2976989746094	651.54345703125	128.1114807128906	-216.3587036132812	-19.05473709106445	488.7045593261719	-492.9009399414062	225.6615905761719	681.2808837890625	-507.4082641601562	403.9537658691406	827.2110595703125	-211.4700775146484	-185.9530944824219	148.6229553222656	-409.8306884765625	331.4905090332031	805.0542602539062	-181.2613067626953	432.9198608398438	729.5016479492188	-212.2852783203125	355.8258056640625	707.8643798828125	-193.6316986083984	194.6666412353516	528.6085815429688	-476.0554809570312	442.0309753417969	563.8384399414062	-238.9304656982422	12.36961460113525	413.1157531738281	-483.5877380371094	-82.65275573730469	378.0946655273438	-479.7356262207031	479.1141662597656	379.0859375	-215.0642700195312	-234.2020416259766	198.4180603027344	-481.4002075195312	399.7797241210938	361.7998352050781	-221.103515625	-263.1366271972656	384.6666564941406	-402.427734375	502.6490783691406	281.7254028320312	-226.7022552490234	425.1161804199219	265.578369140625	-242.8307342529297	-199.4462585449219	351.6302795410156	-477.603271484375	506.8795166015625	141.5456085205078	-225.0091705322266	695.3223876953125	172.9068450927734	-291.4456481933594	459.8992614746094	76.952880859375	-266.8592224121094	483.1557006835938	55.55891418457031	-299.4773864746094	477.8060913085938	51.42002868652344	-243.8270263671875	-267.5305786132812	381.7798156738281	-456.2784423828125
156	0.775	434.4750061035156	1519.63818359375	-519.68017578125	339.975830078125	1507.529418945312	-212.7309722900391	349.3067016601562	1044.23828125	-514.7490234375	335.5196838378906	1071.2041015625	-219.4491119384766	389.3531799316406	1002.6630859375	-487.6643371582031	-217.7083282470703	402.6459045410156	-427.9227294921875	372.7175598144531	1022.648254394531	-225.0655670166016	267.0127868652344	933.6998291015624	-534.2572631835938	267.4775085449219	931.5065307617188	-196.1243133544922	224.7144012451172	1079.02099609375	-368.5389404296875	351.3325500488281	757.5988159179688	-492.8296813964844	-89.19486236572266	453.8777770996094	-459.3127746582031	278.7689208984375	771.5836791992188	-528.2750854492188	323.6322021484375	657.2989501953125	-479.9459838867188	661.27001953125	121.2144088745117	-217.2223815917969	2.733474493026733	488.8003845214844	-492.6233520507812	246.1937103271484	676.3688354492188	-507.7621154785156	421.2044982910156	825.9758911132812	-209.5631713867188	-172.341796875	153.5050506591797	-410.2600708007812	348.2272644042969	802.7390747070312	-181.7242126464844	450.9937133789062	728.2971801757812	-211.4662628173828	373.3658752441406	706.0223388671875	-194.7684936523438	216.9691619873047	523.4371948242188	-476.6400451660156	458.3536987304688	560.572509765625	-239.2660980224609	31.76791572570801	412.6452941894531	-483.9878845214844	-63.74494171142578	379.6987915039062	-479.2453918457031	492.6488342285156	374.6932373046875	-214.8955993652344	-219.5529022216797	203.7646789550781	-480.9240112304688	412.6231079101562	358.5349731445312	-222.1335144042969	-244.0750732421875	390.81787109375	-401.759521484375	514.3605346679688	276.9183044433594	-227.3403930664062	436.7173156738281	262.029296875	-243.5754699707031	-180.4699401855469	357.2262573242188	-478.6034240722656	516.693359375	137.0578918457031	-225.3849639892578	705.2052612304688	166.4846649169922	-292.068359375	468.8946533203125	72.97931671142578	-267.0309143066406	491.9540100097656	51.38282775878906	-300.1779174804688	487.0029602050781	46.98471832275391	-244.5729064941406	-248.5358428955078	388.0668029785156	-455.97216796875
157	0.78	450.155517578125	1516.229614257812	-518.8958740234375	356.8045349121094	1502.91455078125	-210.9969940185547	365.3974304199219	1039.820068359375	-514.3853759765625	350.0917663574219	1067.671142578125	-219.3345642089844	405.6606140136719	998.8136596679688	-487.2756958007812	-197.6799163818359	408.0035705566406	-427.46826171875	389.5145568847656	1019.921691894531	-224.8642883300781	284.0704345703125	928.7591552734376	-534.575439453125	283.3709716796875	928.2222900390624	-196.5707855224609	240.8555297851562	1075.177978515625	-369.1770935058594	370.5113830566406	753.8314208984375	-493.0829772949219	-68.30146789550781	455.8622131347656	-458.7171020507812	297.7096252441406	766.9369506835938	-528.3014526367188	345.1899719238281	653.2504272460938	-480.6560974121094	670.6194458007812	114.0111694335938	-217.9821166992188	24.68288993835449	488.4351806640625	-492.3461303710938	266.5458374023438	671.1124267578125	-507.6885986328125	438.8335571289062	824.6044311523438	-208.6460418701172	-157.7499847412109	157.7422180175781	-410.802490234375	365.1588439941406	800.2421264648438	-182.5912628173828	468.6888122558594	727.0079345703125	-211.2825317382812	390.9172973632812	704.0468139648438	-195.7412567138672	239.4107666015625	518.002197265625	-477.3092041015625	474.2809753417969	556.7385864257812	-239.5048675537109	52.57733917236328	409.9825439453125	-482.4626159667969	-44.4767951965332	381.0023193359375	-479.6850280761719	505.4482421875	369.4682312011719	-215.0411987304688	-204.8003387451172	209.5718078613281	-480.8355407714844	425.2784118652344	354.9779052734375	-222.9470367431641	-224.1648406982422	396.9435119628906	-401.0936889648438	525.57275390625	271.653564453125	-227.3136291503906	447.8185119628906	258.1683044433594	-244.3798522949219	-162.1289367675781	360.9255981445312	-477.7710571289062	525.0997314453125	131.6470336914062	-226.4899139404297	713.9628295898438	159.1922607421875	-292.5532531738281	476.8023986816406	68.52628326416016	-267.5538024902344	499.5466613769531	46.96285247802734	-301.0284118652344	494.4671630859375	42.82391738891602	-245.4630584716797	-228.9967651367188	394.3741455078125	-455.1456298828125
